<svg xmlns="http://www.w3.org/2000/svg" viewBox="0 0 32 32" width="32" height="32">
  <!-- Roaring flames -->
  <!-- Background heat haze -->
  <ellipse cx="16" cy="20" rx="12" ry="10" fill="#ff4400" opacity="0.08"/>
  <!-- Outer flames -->
  <path d="M6,28 Q4,20 8,14 Q10,10 12,14 Q10,8 14,4 Q16,8 18,4 Q22,8 20,14 Q22,10 24,14 Q28,20 26,28Z" fill="#cc3300"/>
  <!-- Mid flames -->
  <path d="M8,28 Q7,22 10,16 Q12,12 14,16 Q13,10 16,6 Q19,10 18,16 Q20,12 22,16 Q25,22 24,28Z" fill="#ee5500"/>
  <!-- Inner flames -->
  <path d="M10,28 Q10,24 12,20 Q14,16 16,20 Q15,14 16,10 Q17,14 16,20 Q18,16 20,20 Q22,24 22,28Z" fill="#ff8800"/>
  <!-- Bright core -->
  <path d="M12,28 Q12,25 14,22 Q15,20 16,22 Q16,18 16,15 Q16,18 16,22 Q17,20 18,22 Q20,25 20,28Z" fill="#ffbb33" opacity="0.7"/>
  <!-- White-hot center -->
  <path d="M14,28 Q14,26 15,24 L16,22 L17,24 Q18,26 18,28Z" fill="#ffddaa" opacity="0.6"/>
  <!-- Sparks -->
  <circle cx="8" cy="10" r="0.6" fill="#ffaa33" opacity="0.7"/>
  <circle cx="22" cy="8" r="0.5" fill="#ffaa33" opacity="0.6"/>
  <circle cx="12" cy="6" r="0.4" fill="#ffcc44" opacity="0.5"/>
  <circle cx="20" cy="5" r="0.5" fill="#ffcc44" opacity="0.5"/>
  <!-- Ember particles -->
  <circle cx="6" cy="16" r="0.3" fill="#ff6600" opacity="0.6"/>
  <circle cx="26" cy="14" r="0.4" fill="#ff6600" opacity="0.5"/>
</svg>