<svg xmlns="http://www.w3.org/2000/svg" viewBox="0 0 32 32" width="32" height="32">
  <!-- Overcharged electric orb -->
  <!-- Outer electric field -->
  <circle cx="16" cy="16" r="13" fill="#ffee22" opacity="0.06"/>
  <circle cx="16" cy="16" r="10" fill="#ffdd44" opacity="0.08"/>
  <!-- Energy orb core -->
  <circle cx="16" cy="16" r="7" fill="#4466aa"/>
  <circle cx="16" cy="16" r="7" fill="none" stroke="#6688cc" stroke-width="0.5"/>
  <!-- Inner energy -->
  <circle cx="16" cy="16" r="5" fill="#5577bb" opacity="0.7"/>
  <circle cx="16" cy="16" r="3" fill="#6688cc" opacity="0.5"/>
  <!-- Core glow -->
  <circle cx="16" cy="16" r="1.5" fill="#ffee88" opacity="0.6"/>
  <circle cx="15" cy="15" r="0.6" fill="#ffffff" opacity="0.5"/>
  <!-- Electric arcs emanating from orb -->
  <path d="M9,16 L6,14 L4,16" fill="none" stroke="#ffdd22" stroke-width="0.8" stroke-linecap="round"/>
  <path d="M23,16 L26,14 L28,16" fill="none" stroke="#ffdd22" stroke-width="0.8" stroke-linecap="round"/>
  <path d="M16,9 L14,6 L16,4" fill="none" stroke="#ffdd22" stroke-width="0.8" stroke-linecap="round"/>
  <path d="M16,23 L18,26 L16,28" fill="none" stroke="#ffdd22" stroke-width="0.8" stroke-linecap="round"/>
  <!-- Diagonal arcs -->
  <path d="M11,11 L8,8 L6,6" fill="none" stroke="#ffcc22" stroke-width="0.6" stroke-linecap="round"/>
  <path d="M21,11 L24,8 L26,6" fill="none" stroke="#ffcc22" stroke-width="0.6" stroke-linecap="round"/>
  <path d="M11,21 L8,24 L6,26" fill="none" stroke="#ffcc22" stroke-width="0.6" stroke-linecap="round"/>
  <path d="M21,21 L24,24 L26,26" fill="none" stroke="#ffcc22" stroke-width="0.6" stroke-linecap="round"/>
  <!-- Arc tips glow -->
  <circle cx="4" cy="16" r="0.8" fill="#ffee44" opacity="0.5"/>
  <circle cx="28" cy="16" r="0.8" fill="#ffee44" opacity="0.5"/>
  <circle cx="16" cy="4" r="0.8" fill="#ffee44" opacity="0.5"/>
  <circle cx="16" cy="28" r="0.8" fill="#ffee44" opacity="0.5"/>
  <circle cx="6" cy="6" r="0.6" fill="#ffee44" opacity="0.4"/>
  <circle cx="26" cy="6" r="0.6" fill="#ffee44" opacity="0.4"/>
  <circle cx="6" cy="26" r="0.6" fill="#ffee44" opacity="0.4"/>
  <circle cx="26" cy="26" r="0.6" fill="#ffee44" opacity="0.4"/>
  <!-- Orb surface lightning -->
  <path d="M12,13 L14,15 L12,17" fill="none" stroke="#aaccff" stroke-width="0.4" opacity="0.5"/>
  <path d="M20,13 L18,15 L20,17" fill="none" stroke="#aaccff" stroke-width="0.4" opacity="0.5"/>
</svg>