<svg xmlns="http://www.w3.org/2000/svg" viewBox="0 0 32 32" width="32" height="32">
  <!-- Fierce glowing eyes with dark aura -->
  <!-- Dark aura background -->
  <circle cx="16" cy="16" r="13" fill="#1a0a2e" opacity="0.6"/>
  <circle cx="16" cy="16" r="10" fill="#2a1040" opacity="0.4"/>
  <!-- Angry brow line -->
  <path d="M6,12 L13,14" fill="none" stroke="#ff4444" stroke-width="1.5" stroke-linecap="round"/>
  <path d="M26,12 L19,14" fill="none" stroke="#ff4444" stroke-width="1.5" stroke-linecap="round"/>
  <!-- Left eye -->
  <path d="M8,16 Q11,13 14,16 Q11,18 8,16Z" fill="#ff2200"/>
  <path d="M9,16 Q11,14 13,16 Q11,17.5 9,16Z" fill="#ff6644" opacity="0.6"/>
  <circle cx="11" cy="15.8" r="1" fill="#ffcc00"/>
  <circle cx="11" cy="15.8" r="0.4" fill="#ffffff"/>
  <!-- Right eye -->
  <path d="M18,16 Q21,13 24,16 Q21,18 18,16Z" fill="#ff2200"/>
  <path d="M19,16 Q21,14 23,16 Q21,17.5 19,16Z" fill="#ff6644" opacity="0.6"/>
  <circle cx="21" cy="15.8" r="1" fill="#ffcc00"/>
  <circle cx="21" cy="15.8" r="0.4" fill="#ffffff"/>
  <!-- Fear waves emanating outward -->
  <path d="M4,10 Q2,8 3,6" fill="none" stroke="#cc3333" stroke-width="0.6" opacity="0.4" stroke-linecap="round"/>
  <path d="M28,10 Q30,8 29,6" fill="none" stroke="#cc3333" stroke-width="0.6" opacity="0.4" stroke-linecap="round"/>
  <path d="M6,24 Q4,26 5,28" fill="none" stroke="#cc3333" stroke-width="0.6" opacity="0.3" stroke-linecap="round"/>
  <path d="M26,24 Q28,26 27,28" fill="none" stroke="#cc3333" stroke-width="0.6" opacity="0.3" stroke-linecap="round"/>
  <!-- Dark mist at bottom -->
  <ellipse cx="16" cy="26" rx="10" ry="3" fill="#1a0a2e" opacity="0.4"/>
</svg>