<svg xmlns="http://www.w3.org/2000/svg" viewBox="0 0 32 32" width="32" height="32">
  <!-- Swirling portal vortex -->
  <!-- Outer ring glow -->
  <circle cx="16" cy="16" r="13" fill="#2244aa" opacity="0.2"/>
  <!-- Vortex rings -->
  <ellipse cx="16" cy="16" rx="12" ry="12" fill="none" stroke="#4488ff" stroke-width="1" opacity="0.4"/>
  <ellipse cx="16" cy="16" rx="9.5" ry="9.5" fill="none" stroke="#5599ff" stroke-width="1.2" opacity="0.5"/>
  <ellipse cx="16" cy="16" rx="7" ry="7" fill="none" stroke="#66aaff" stroke-width="1.3" opacity="0.6"/>
  <ellipse cx="16" cy="16" rx="4.5" ry="4.5" fill="none" stroke="#77bbff" stroke-width="1.5" opacity="0.7"/>
  <!-- Inner vortex -->
  <circle cx="16" cy="16" r="3" fill="#1a2a5e"/>
  <circle cx="16" cy="16" r="1.5" fill="#0a1a3e"/>
  <!-- Spiral arms -->
  <path d="M16,4 Q24,8 24,16" fill="none" stroke="#88ccff" stroke-width="1" opacity="0.5" stroke-linecap="round"/>
  <path d="M28,16 Q24,24 16,28" fill="none" stroke="#88ccff" stroke-width="1" opacity="0.5" stroke-linecap="round"/>
  <path d="M16,28 Q8,24 4,16" fill="none" stroke="#88ccff" stroke-width="1" opacity="0.4" stroke-linecap="round"/>
  <path d="M4,16 Q8,8 16,4" fill="none" stroke="#88ccff" stroke-width="1" opacity="0.4" stroke-linecap="round"/>
  <!-- Sparkles -->
  <circle cx="10" cy="6" r="0.8" fill="#aaddff" opacity="0.7"/>
  <circle cx="26" cy="12" r="0.6" fill="#aaddff" opacity="0.6"/>
  <circle cx="22" cy="26" r="0.7" fill="#aaddff" opacity="0.5"/>
  <circle cx="5" cy="20" r="0.6" fill="#aaddff" opacity="0.6"/>
</svg>