<svg xmlns="http://www.w3.org/2000/svg" viewBox="0 0 32 32" width="32" height="32">
  <!-- Background energy glow -->
  <ellipse cx="16" cy="16" rx="13" ry="14" fill="#4080ff" opacity="0.06"/>
  <ellipse cx="16" cy="14" rx="8" ry="9" fill="#60a0ff" opacity="0.08"/>
  <!-- Left hand -->
  <path d="M4 18 Q3 15 4 13 L5 12 Q6 11 7 12 L7 14 Q7 11 8 10.5 Q9 10 9.5 11 L9.5 14 Q9.5 11.5 10.5 11 Q11.5 10.5 11.5 12 L11.5 15 Q11.5 13 12.5 12.5 Q13 13 13 14.5 L13 19 Q13 22 10 23 L6 23 Q4 22 4 18Z" fill="#c8a888"/>
  <path d="M4 18 Q3 15 4 13 L5 12 Q6 11 7 12 L7 14 Q7 11 8 10.5 Q9 10 9.5 11 L9.5 14 Q9.5 11.5 10.5 11 Q11.5 10.5 11.5 12 L11.5 15 Q11.5 13 12.5 12.5 Q13 13 13 14.5 L13 19 Q13 22 10 23 L6 23 Q4 22 4 18Z" fill="url(#ce1)" opacity="0.4"/>
  <!-- Left hand finger highlights -->
  <path d="M5 13 Q5.5 12 6.5 12.5" stroke="white" stroke-width="0.3" opacity="0.2"/>
  <path d="M7.5 11 Q8.5 10.5 9 11.5" stroke="white" stroke-width="0.3" opacity="0.2"/>
  <path d="M10 11 Q11 10.5 11 12" stroke="white" stroke-width="0.3" opacity="0.2"/>
  <!-- Left hand shadow -->
  <path d="M5 20 Q5 22 7 23 L10 23" stroke="#8a6a5a" stroke-width="0.4" fill="none" opacity="0.3"/>
  <!-- Right hand (mirrored) -->
  <path d="M28 18 Q29 15 28 13 L27 12 Q26 11 25 12 L25 14 Q25 11 24 10.5 Q23 10 22.5 11 L22.5 14 Q22.5 11.5 21.5 11 Q20.5 10.5 20.5 12 L20.5 15 Q20.5 13 19.5 12.5 Q19 13 19 14.5 L19 19 Q19 22 22 23 L26 23 Q28 22 28 18Z" fill="#c8a888"/>
  <path d="M28 18 Q29 15 28 13 L27 12 Q26 11 25 12 L25 14 Q25 11 24 10.5 Q23 10 22.5 11 L22.5 14 Q22.5 11.5 21.5 11 Q20.5 10.5 20.5 12 L20.5 15 Q20.5 13 19.5 12.5 Q19 13 19 14.5 L19 19 Q19 22 22 23 L26 23 Q28 22 28 18Z" fill="url(#ce2)" opacity="0.4"/>
  <!-- Right hand finger highlights -->
  <path d="M27 13 Q26.5 12 25.5 12.5" stroke="white" stroke-width="0.3" opacity="0.2"/>
  <path d="M24.5 11 Q23.5 10.5 23 11.5" stroke="white" stroke-width="0.3" opacity="0.2"/>
  <!-- Lightning bolt center -->
  <path d="M16 3 L14 10 L17 10 L13 19 L17 13 L14.5 13 L18 5Z" fill="#70b0ff"/>
  <path d="M16 3 L14 10 L17 10 L13 19 L17 13 L14.5 13 L18 5Z" fill="url(#ce3)" opacity="0.7"/>
  <path d="M16 3 L14 10 L17 10 L13 19 L17 13 L14.5 13 L18 5Z" fill="none" stroke="#a0d0ff" stroke-width="0.4" opacity="0.6"/>
  <!-- Lightning core glow -->
  <path d="M15.5 5 L14.5 10 L16.5 10 L14 17 L16.5 13 L15 13 L17 6" fill="white" opacity="0.3"/>
  <!-- Energy arcs from hands to bolt -->
  <path d="M13 15 Q14 14 14.5 12" fill="none" stroke="#80c0ff" stroke-width="0.6" opacity="0.5"/>
  <path d="M13 17 Q14.5 16 15 14" fill="none" stroke="#80c0ff" stroke-width="0.4" opacity="0.4"/>
  <path d="M19 15 Q18 14 17.5 12" fill="none" stroke="#80c0ff" stroke-width="0.6" opacity="0.5"/>
  <path d="M19 17 Q17.5 16 17 14" fill="none" stroke="#80c0ff" stroke-width="0.4" opacity="0.4"/>
  <!-- Small secondary arcs -->
  <path d="M12.5 14 Q13.5 13 14 11" fill="none" stroke="#60a0ff" stroke-width="0.3" opacity="0.35"/>
  <path d="M19.5 14 Q18.5 13 18 11" fill="none" stroke="#60a0ff" stroke-width="0.3" opacity="0.35"/>
  <!-- Spark particles -->
  <circle cx="14" cy="8" r="0.5" fill="white" opacity="0.5"/>
  <circle cx="17.5" cy="6" r="0.4" fill="white" opacity="0.4"/>
  <circle cx="13.5" cy="16" r="0.3" fill="#a0d0ff" opacity="0.5"/>
  <circle cx="18.5" cy="15" r="0.3" fill="#a0d0ff" opacity="0.5"/>
  <circle cx="15" cy="4" r="0.3" fill="white" opacity="0.6"/>
  <!-- Energy ground scatter -->
  <circle cx="12" cy="25" r="0.3" fill="#60a0ff" opacity="0.3"/>
  <circle cx="20" cy="26" r="0.3" fill="#60a0ff" opacity="0.25"/>
  <circle cx="16" cy="24" r="0.4" fill="#80c0ff" opacity="0.3"/>
  <!-- Bottom energy pool -->
  <ellipse cx="16" cy="28" rx="8" ry="2" fill="#4080ff" opacity="0.1"/>
  <defs>
    <linearGradient id="ce1" x1="0" y1="0" x2="1" y2="1">
      <stop offset="0%" stop-color="#e0c8b0"/>
      <stop offset="100%" stop-color="#8a6850"/>
    </linearGradient>
    <linearGradient id="ce2" x1="1" y1="0" x2="0" y2="1">
      <stop offset="0%" stop-color="#e0c8b0"/>
      <stop offset="100%" stop-color="#8a6850"/>
    </linearGradient>
    <linearGradient id="ce3" x1="0.5" y1="0" x2="0.5" y2="1">
      <stop offset="0%" stop-color="#ffffff"/>
      <stop offset="30%" stop-color="#a0d0ff"/>
      <stop offset="100%" stop-color="#4080cc"/>
    </linearGradient>
  </defs>
</svg>