<svg xmlns="http://www.w3.org/2000/svg" viewBox="0 0 32 32" width="32" height="32">
  <!-- Background glow -->
  <ellipse cx="16" cy="20" rx="10" ry="6" fill="#4af" opacity="0.12"/>
  <!-- Left boot -->
  <path d="M7 10 L7 22 Q7 25 10 25 L14 25 Q15 25 15 23 L15 14 Q15 11 12 10 Z" fill="#5a3a1a"/>
  <path d="M7 10 L7 22 Q7 25 10 25 L14 25 Q15 25 15 23 L15 14 Q15 11 12 10 Z" fill="#7a5a3a" opacity="0.5"/>
  <path d="M8 12 L8 21 Q8 24 10 24 L13 24 Q14 24 14 22 L14 15 Q14 12 12 11 Z" fill="#6b4a2a"/>
  <!-- Left boot sole -->
  <path d="M7 22 Q7 26 10 26 L14 26 Q15 26 15 24 L7 24 Z" fill="#3a2510"/>
  <!-- Left boot highlight -->
  <path d="M9 12 L9 18" stroke="white" stroke-width="0.7" opacity="0.3" stroke-linecap="round"/>
  <!-- Left boot wing -->
  <path d="M6 12 Q2 8 4 5 Q5 7 7 8 Q5 9 6 12" fill="#ddd" opacity="0.8"/>
  <path d="M6 12 Q2 8 4 5" stroke="white" stroke-width="0.4" opacity="0.5" fill="none"/>
  <!-- Right boot -->
  <path d="M17 10 L17 22 Q17 25 20 25 L24 25 Q25 25 25 23 L25 14 Q25 11 22 10 Z" fill="#5a3a1a"/>
  <path d="M17 10 L17 22 Q17 25 20 25 L24 25 Q25 25 25 23 L25 14 Q25 11 22 10 Z" fill="#7a5a3a" opacity="0.5"/>
  <path d="M18 12 L18 21 Q18 24 20 24 L23 24 Q24 24 24 22 L24 15 Q24 12 22 11 Z" fill="#6b4a2a"/>
  <!-- Right boot sole -->
  <path d="M17 22 Q17 26 20 26 L24 26 Q25 26 25 24 L17 24 Z" fill="#3a2510"/>
  <!-- Right boot highlight -->
  <path d="M19 12 L19 18" stroke="white" stroke-width="0.7" opacity="0.3" stroke-linecap="round"/>
  <!-- Right boot wing -->
  <path d="M26 12 Q30 8 28 5 Q27 7 25 8 Q27 9 26 12" fill="#ddd" opacity="0.8"/>
  <path d="M26 12 Q30 8 28 5" stroke="white" stroke-width="0.4" opacity="0.5" fill="none"/>
  <!-- Speed trails -->
  <line x1="2" y1="15" x2="6" y2="15" stroke="#4af" stroke-width="1.2" opacity="0.7" stroke-linecap="round"/>
  <line x1="1" y1="18" x2="5" y2="18" stroke="#4af" stroke-width="1" opacity="0.5" stroke-linecap="round"/>
  <line x1="3" y1="21" x2="6" y2="21" stroke="#4af" stroke-width="0.8" opacity="0.4" stroke-linecap="round"/>
  <line x1="26" y1="15" x2="30" y2="15" stroke="#4af" stroke-width="1.2" opacity="0.7" stroke-linecap="round"/>
  <line x1="27" y1="18" x2="31" y2="18" stroke="#4af" stroke-width="1" opacity="0.5" stroke-linecap="round"/>
  <line x1="26" y1="21" x2="29" y2="21" stroke="#4af" stroke-width="0.8" opacity="0.4" stroke-linecap="round"/>
  <!-- Lace details -->
  <line x1="10" y1="12" x2="13" y2="12" stroke="#3a2510" stroke-width="0.5"/>
  <line x1="10" y1="14" x2="13" y2="14" stroke="#3a2510" stroke-width="0.5"/>
  <line x1="10" y1="16" x2="13" y2="16" stroke="#3a2510" stroke-width="0.5"/>
  <line x1="20" y1="12" x2="23" y2="12" stroke="#3a2510" stroke-width="0.5"/>
  <line x1="20" y1="14" x2="23" y2="14" stroke="#3a2510" stroke-width="0.5"/>
  <line x1="20" y1="16" x2="23" y2="16" stroke="#3a2510" stroke-width="0.5"/>
</svg>