<svg xmlns="http://www.w3.org/2000/svg" viewBox="0 0 32 32" width="32" height="32">
  <!-- Outer divine glow -->
  <circle cx="16" cy="15" r="14" fill="#fc0" opacity="0.08"/>
  <circle cx="16" cy="15" r="10" fill="#fd0" opacity="0.1"/>
  <!-- Shield body -->
  <path d="M16 3 L6 8 L6 17 Q6 26 16 30 Q26 26 26 17 L26 8 Z" fill="#DAA520"/>
  <path d="M16 3 L6 8 L6 17 Q6 26 16 30 Q16 8 16 3 Z" fill="#e8b830" opacity="0.5"/>
  <path d="M16 3 L26 8 L26 17 Q26 26 16 30 Q16 8 16 3 Z" fill="#c89510" opacity="0.3"/>
  <!-- Shield border -->
  <path d="M16 3 L6 8 L6 17 Q6 26 16 30 Q26 26 26 17 L26 8 Z" stroke="#a07800" stroke-width="1" fill="none"/>
  <!-- Inner shield face -->
  <path d="M16 6 L9 10 L9 17 Q9 24 16 27 Q23 24 23 17 L23 10 Z" fill="#c89510" opacity="0.4"/>
  <path d="M16 6 L9 10 L9 17 Q9 24 16 27 Q23 24 23 17 L23 10 Z" stroke="#a07800" stroke-width="0.5" fill="none" opacity="0.5"/>
  <!-- Glowing star -->
  <polygon points="16,8 17.5,13 22,13.5 18.5,16.5 19.5,21 16,18.5 12.5,21 13.5,16.5 10,13.5 14.5,13" fill="#fe0"/>
  <polygon points="16,8 17.5,13 22,13.5 18.5,16.5 19.5,21 16,18.5 12.5,21 13.5,16.5 10,13.5 14.5,13" fill="#fff" opacity="0.3"/>
  <!-- Star inner glow -->
  <polygon points="16,10 17,13.5 20,14 18,16 18.5,19 16,17.5 13.5,19 14,16 12,14 15,13.5" fill="white" opacity="0.25"/>
  <!-- Star center -->
  <circle cx="16" cy="15" r="1.5" fill="white" opacity="0.4"/>
  <circle cx="16" cy="15" r="0.8" fill="white" opacity="0.6"/>
  <!-- Shield highlight -->
  <path d="M16 4 L8 8.5 L8 14" stroke="white" stroke-width="0.6" opacity="0.25" fill="none"/>
  <!-- Radiant lines from star -->
  <line x1="16" y1="6" x2="16" y2="4" stroke="#fe0" stroke-width="0.5" opacity="0.4" stroke-linecap="round"/>
  <line x1="23" y1="14" x2="25" y2="13" stroke="#fe0" stroke-width="0.4" opacity="0.3" stroke-linecap="round"/>
  <line x1="9" y1="14" x2="7" y2="13" stroke="#fe0" stroke-width="0.4" opacity="0.3" stroke-linecap="round"/>
  <line x1="19" y1="21" x2="21" y2="23" stroke="#fe0" stroke-width="0.4" opacity="0.3" stroke-linecap="round"/>
  <line x1="13" y1="21" x2="11" y2="23" stroke="#fe0" stroke-width="0.4" opacity="0.3" stroke-linecap="round"/>
  <!-- Sparkles -->
  <circle cx="7" cy="6" r="0.4" fill="white" opacity="0.3"/>
  <circle cx="25" cy="6" r="0.3" fill="white" opacity="0.25"/>
</svg>