<svg xmlns="http://www.w3.org/2000/svg" viewBox="0 0 32 32" width="32" height="32">
  <!-- Shadow -->
  <ellipse cx="16" cy="28" rx="9" ry="3" fill="#000" opacity="0.15"/>
  <!-- Shield body -->
  <path d="M16 3 L6 8 L6 17 Q6 26 16 30 Q26 26 26 17 L26 8 Z" fill="#708090"/>
  <path d="M16 3 L6 8 L6 17 Q6 26 16 30 Q26 26 26 17 L26 8 Z" fill="#8a9aaa" opacity="0.4"/>
  <!-- Shield rim -->
  <path d="M16 3 L6 8 L6 17 Q6 26 16 30 Q26 26 26 17 L26 8 Z" stroke="#4a5a6a" stroke-width="1.5" fill="none"/>
  <!-- Metal reinforcement cross bands -->
  <rect x="14.5" y="5" width="3" height="23" rx="0.5" fill="#9ab" opacity="0.6"/>
  <rect x="8" y="13.5" width="16" height="3" rx="0.5" fill="#9ab" opacity="0.6"/>
  <!-- Rivets -->
  <circle cx="10" cy="10" r="1" fill="#bcc" stroke="#5a6a7a" stroke-width="0.4"/>
  <circle cx="22" cy="10" r="1" fill="#bcc" stroke="#5a6a7a" stroke-width="0.4"/>
  <circle cx="10" cy="20" r="1" fill="#bcc" stroke="#5a6a7a" stroke-width="0.4"/>
  <circle cx="22" cy="20" r="1" fill="#bcc" stroke="#5a6a7a" stroke-width="0.4"/>
  <!-- HP cross -->
  <rect x="13" y="11" width="6" height="10" rx="0.5" fill="#d33"/>
  <rect x="10" y="13" width="12" height="6" rx="0.5" fill="#d33"/>
  <rect x="13.5" y="11.5" width="5" height="9" rx="0.3" fill="#f55" opacity="0.5"/>
  <rect x="10.5" y="13.5" width="11" height="5" rx="0.3" fill="#f55" opacity="0.5"/>
  <!-- Cross highlight -->
  <rect x="14" y="12" width="1" height="8" fill="white" opacity="0.2" rx="0.3"/>
  <rect x="11" y="14" width="10" height="1" fill="white" opacity="0.2" rx="0.3"/>
  <!-- Shield highlight edge -->
  <path d="M16 4 L8 8 L8 16 Q8 24 16 28" stroke="white" stroke-width="0.6" opacity="0.25" fill="none"/>
  <!-- Metallic sheen -->
  <path d="M9 8 L16 5 L16 15 L9 15 Z" fill="white" opacity="0.08"/>
</svg>