<svg xmlns="http://www.w3.org/2000/svg" viewBox="0 0 32 32" width="32" height="32">
  <!-- Shadow -->
  <ellipse cx="16" cy="29" rx="6" ry="2" fill="#000" opacity="0.1"/>
  <!-- Arrow shaft -->
  <rect x="15" y="12" width="2" height="16" rx="0.3" fill="#8B6914"/>
  <rect x="15.5" y="12" width="0.8" height="16" fill="#a88030" opacity="0.5"/>
  <!-- Fletching -->
  <path d="M14 26 L16 24 L16 28 Z" fill="#933" opacity="0.8"/>
  <path d="M18 26 L16 24 L16 28 Z" fill="#a44" opacity="0.8"/>
  <path d="M14 26 L15 25" stroke="#b55" stroke-width="0.3" opacity="0.5"/>
  <!-- Jagged arrowhead -->
  <path d="M16 2 L12 10 L13 9 L14 12 L15 10 L16 13 L17 10 L18 12 L19 9 L20 10 Z" fill="#888"/>
  <path d="M16 2 L12 10 L13 9 L14 12 L15 10 L16 13 Z" fill="#aaa" opacity="0.5"/>
  <path d="M16 2 L12 10 L13 9 L14 12 L15 10 L16 13 L17 10 L18 12 L19 9 L20 10 Z" stroke="#666" stroke-width="0.5" fill="none"/>
  <!-- Serrated edge highlight -->
  <path d="M16 3 L14 7 L15 6" stroke="white" stroke-width="0.4" opacity="0.35" fill="none"/>
  <!-- Blood drops -->
  <path d="M10 12 Q10 10 11 12 Q10 14 10 12" fill="#a22" opacity="0.7"/>
  <path d="M10 12 Q10 11 10.5 12" fill="#c44" opacity="0.4"/>
  <path d="M22 10 Q22 8 23 10 Q22 12 22 10" fill="#a22" opacity="0.6"/>
  <path d="M22 10 Q22 9 22.5 10" fill="#c44" opacity="0.35"/>
  <path d="M8 16 Q8 15 8.7 16 Q8 17 8 16" fill="#922" opacity="0.5"/>
  <!-- Blood drip from tip -->
  <path d="M13 11 Q12 13 12 14 Q12 15 13 14.5 Q13.5 14 13 13 Z" fill="#911" opacity="0.6"/>
  <path d="M19 11 Q20 12 20 13.5 Q20 14.5 19.5 14 Q19 13 19 11 Z" fill="#911" opacity="0.5"/>
  <!-- Blood splatter small -->
  <circle cx="11" cy="14" r="0.5" fill="#a22" opacity="0.4"/>
  <circle cx="21" cy="12" r="0.4" fill="#a22" opacity="0.4"/>
  <circle cx="9" cy="11" r="0.3" fill="#822" opacity="0.3"/>
  <!-- Metal sheen on head -->
  <line x1="15" y1="5" x2="15" y2="9" stroke="white" stroke-width="0.4" opacity="0.2"/>
</svg>