<svg xmlns="http://www.w3.org/2000/svg" viewBox="0 0 32 32" width="32" height="32">
  <defs>
    <radialGradient id="sa_glow" cx="50%" cy="50%" r="50%">
      <stop offset="0%" stop-color="#ffe066" stop-opacity="0.4"/>
      <stop offset="100%" stop-color="#ffe066" stop-opacity="0"/>
    </radialGradient>
    <linearGradient id="sa_boot" x1="0" y1="0" x2="0" y2="1">
      <stop offset="0%" stop-color="#8B6914"/>
      <stop offset="100%" stop-color="#5C4400"/>
    </linearGradient>
    <linearGradient id="sa_wing" x1="0" y1="0" x2="1" y2="1">
      <stop offset="0%" stop-color="#ffffff"/>
      <stop offset="50%" stop-color="#ddeeff"/>
      <stop offset="100%" stop-color="#aaccee"/>
    </linearGradient>
  </defs>
  <!-- Background glow -->
  <circle cx="16" cy="16" r="14" fill="url(#sa_glow)"/>
  <!-- Boot sole -->
  <path d="M7 24 L9 26 L24 26 L26 24 L25 23 L8 23 Z" fill="#3a2a10" stroke="#2a1a08" stroke-width="0.5"/>
  <!-- Boot body -->
  <path d="M9 23 L9 14 Q9 12 11 12 L20 12 Q22 12 22 14 L22 23 Z" fill="url(#sa_boot)" stroke="#4a3400" stroke-width="0.5"/>
  <!-- Boot highlight -->
  <path d="M10 14 L10 22 L12 22 L12 14 Q12 13 11 13 Z" fill="white" opacity="0.15"/>
  <!-- Boot toe cap -->
  <path d="M22 18 L26 20 L26 23 L25 24 L22 23 Z" fill="#7a5a14" stroke="#4a3400" stroke-width="0.5"/>
  <path d="M22 19 L24 20 L24 22 L22 22 Z" fill="white" opacity="0.1"/>
  <!-- Laces -->
  <line x1="13" y1="14" x2="18" y2="14" stroke="#c4a442" stroke-width="0.6"/>
  <line x1="13" y1="16" x2="18" y2="16" stroke="#c4a442" stroke-width="0.6"/>
  <line x1="13" y1="18" x2="18" y2="18" stroke="#c4a442" stroke-width="0.6"/>
  <!-- Wing feathers -->
  <path d="M8 14 Q4 10 3 5 Q6 7 9 10 Z" fill="url(#sa_wing)" stroke="#8899bb" stroke-width="0.4" opacity="0.9"/>
  <path d="M9 15 Q6 9 6 4 Q8 7 11 11 Z" fill="url(#sa_wing)" stroke="#8899bb" stroke-width="0.4" opacity="0.85"/>
  <path d="M10 16 Q8 10 9 5 Q10 8 12 12 Z" fill="url(#sa_wing)" stroke="#8899bb" stroke-width="0.4" opacity="0.8"/>
  <!-- Wing highlight -->
  <path d="M8 13 Q5 9 4 6" stroke="white" stroke-width="0.5" fill="none" opacity="0.5"/>
  <!-- Lightning bolt -->
  <path d="M22 4 L18 13 L21 13 L17 22 L24 11 L21 11 Z" fill="#ffdd44" stroke="#ddaa00" stroke-width="0.4"/>
  <path d="M21 5 L19 11 L21 11 Z" fill="white" opacity="0.4"/>
  <!-- Lightning glow -->
  <path d="M22 4 L18 13 L21 13 L17 22 L24 11 L21 11 Z" fill="#ffff88" opacity="0.2"/>
  <!-- Sparkles -->
  <circle cx="25" cy="6" r="0.8" fill="#ffee88" opacity="0.7"/>
  <circle cx="27" cy="9" r="0.5" fill="#ffee88" opacity="0.5"/>
  <circle cx="15" cy="21" r="0.4" fill="#ffdd44" opacity="0.4"/>
</svg>