<svg xmlns="http://www.w3.org/2000/svg" viewBox="0 0 32 32" width="32" height="32">
  <!-- Outer healing aura -->
  <circle cx="16" cy="16" r="14" fill="#f44" opacity="0.06"/>
  <circle cx="16" cy="16" r="11" fill="#f66" opacity="0.08"/>
  <circle cx="16" cy="16" r="8" fill="#f88" opacity="0.1"/>
  <!-- Aura ring -->
  <circle cx="16" cy="16" r="13" stroke="#f66" stroke-width="0.6" fill="none" opacity="0.3"/>
  <circle cx="16" cy="16" r="11" stroke="#faa" stroke-width="0.4" fill="none" opacity="0.2"/>
  <!-- Heart shape -->
  <path d="M16 26 Q8 20 6 14 Q4 8 10 7 Q13 6 16 10 Q19 6 22 7 Q28 8 26 14 Q24 20 16 26 Z" fill="#c22"/>
  <path d="M16 26 Q8 20 6 14 Q4 8 10 7 Q13 6 16 10 Q19 6 22 7 Q28 8 26 14 Q24 20 16 26 Z" fill="#e44" opacity="0.4"/>
  <!-- Heart dark shading -->
  <path d="M16 26 Q20 22 23 17 Q25 13 24 10 Q22 8 20 8 Q18 8 16 12 Z" fill="#a11" opacity="0.3"/>
  <!-- Heart highlight -->
  <path d="M10 8 Q8 9 7 12 Q6 14 8 12 Q9 10 11 9 Z" fill="white" opacity="0.35"/>
  <circle cx="10" cy="10" r="1.2" fill="white" opacity="0.25"/>
  <!-- Pulse lines -->
  <circle cx="16" cy="16" r="6" stroke="#faa" stroke-width="0.5" fill="none" opacity="0.35"/>
  <!-- Healing sparkles -->
  <circle cx="6" cy="8" r="0.6" fill="#fcc" opacity="0.6"/>
  <circle cx="26" cy="9" r="0.5" fill="#fcc" opacity="0.5"/>
  <circle cx="8" cy="24" r="0.4" fill="#fcc" opacity="0.4"/>
  <circle cx="24" cy="23" r="0.5" fill="#fcc" opacity="0.5"/>
  <circle cx="3" cy="16" r="0.4" fill="#faa" opacity="0.4"/>
  <circle cx="29" cy="15" r="0.4" fill="#faa" opacity="0.4"/>
  <!-- Heart vein details -->
  <path d="M13 12 Q14 15 14 18" stroke="#a11" stroke-width="0.4" fill="none" opacity="0.4"/>
  <path d="M19 12 Q18 15 18 18" stroke="#a11" stroke-width="0.4" fill="none" opacity="0.4"/>
  <!-- Beat wave effect -->
  <path d="M2 16 L6 16 L8 12 L10 20 L12 14 L14 18 L16 16" stroke="#f66" stroke-width="0.5" fill="none" opacity="0.2"/>
</svg>