<svg xmlns="http://www.w3.org/2000/svg" viewBox="0 0 32 32" width="32" height="32">
  <!-- Outer mystical glow -->
  <circle cx="16" cy="16" r="14" fill="#8a2be2" opacity="0.08"/>
  <circle cx="16" cy="16" r="10" fill="#9945ff" opacity="0.12"/>
  <circle cx="16" cy="16" r="7" fill="#b060ff" opacity="0.1"/>
  <!-- Orb stand/base -->
  <path d="M10,26 Q10,24 13,24 L19,24 Q22,24 22,26 Z" fill="#5a3a15"/>
  <path d="M11,26 Q11,25 13.5,25 L18.5,25 Q21,25 21,26 Z" fill="#7a5020" opacity="0.6"/>
  <ellipse cx="16" cy="26" rx="6" ry="1.5" fill="#4a2a10"/>
  <ellipse cx="16" cy="26" rx="5.5" ry="1" fill="#6a4420" opacity="0.5"/>
  <!-- Stand prongs -->
  <path d="M11,25 Q10,22 11,20" fill="none" stroke="#5a3a15" stroke-width="1.5" stroke-linecap="round"/>
  <path d="M21,25 Q22,22 21,20" fill="none" stroke="#5a3a15" stroke-width="1.5" stroke-linecap="round"/>
  <path d="M14,25 Q13,23 14,21" fill="none" stroke="#5a3a15" stroke-width="1" stroke-linecap="round"/>
  <path d="M18,25 Q19,23 18,21" fill="none" stroke="#5a3a15" stroke-width="1" stroke-linecap="round"/>
  <!-- Crystal orb -->
  <circle cx="16" cy="14" r="9" fill="#3a1070"/>
  <circle cx="16" cy="14" r="8.5" fill="#4a1888"/>
  <circle cx="16" cy="14" r="7.5" fill="#5a20a0"/>
  <!-- Inner swirling energy -->
  <path d="M12,11 Q16,8 20,12 Q22,16 18,18 Q14,20 12,16 Z" fill="#7030c0" opacity="0.5"/>
  <path d="M14,10 Q18,9 19,13 Q20,17 16,18 Q12,17 14,13 Z" fill="#8840d8" opacity="0.4"/>
  <path d="M15,12 Q17,10 18,14 Q18,16 16,17 Q14,16 15,14 Z" fill="#a050f0" opacity="0.35"/>
  <!-- Bright core -->
  <circle cx="16" cy="14" r="2.5" fill="#c080ff" opacity="0.4"/>
  <circle cx="16" cy="14" r="1.5" fill="#d8a0ff" opacity="0.5"/>
  <circle cx="16" cy="14" r="0.8" fill="#f0d0ff" opacity="0.6"/>
  <!-- Glass highlight -->
  <ellipse cx="13" cy="11" rx="2.5" ry="2" fill="#ffffff" opacity="0.15" transform="rotate(-30,13,11)"/>
  <ellipse cx="12.5" cy="10.5" rx="1.5" ry="1" fill="#ffffff" opacity="0.2" transform="rotate(-30,12.5,10.5)"/>
  <!-- Edge reflection -->
  <path d="M9,9 Q8,14 10,19" fill="none" stroke="#ffffff" stroke-width="0.4" opacity="0.15"/>
  <!-- Orb outline -->
  <circle cx="16" cy="14" r="9" fill="none" stroke="#2a0850" stroke-width="0.6" opacity="0.7"/>
  <!-- Floating particles -->
  <circle cx="12" cy="4" r="0.6" fill="#c080ff" opacity="0.5"/>
  <circle cx="22" cy="6" r="0.5" fill="#b060ff" opacity="0.4"/>
  <circle cx="8" cy="17" r="0.4" fill="#d8a0ff" opacity="0.4"/>
  <circle cx="25" cy="15" r="0.5" fill="#c080ff" opacity="0.3"/>
  <!-- Sparkle on top -->
  <path d="M16,4 L16.4,2.5 L16.8,4 L16.4,5.5 Z" fill="#e0c0ff" opacity="0.6"/>
  <path d="M15.4,4 L16.4,3.5 L17.4,4 L16.4,4.5 Z" fill="#e0c0ff" opacity="0.4"/>
</svg>