<svg xmlns="http://www.w3.org/2000/svg" viewBox="0 0 32 32" width="32" height="32">
  <!-- Soft gold glow -->
  <ellipse cx="16" cy="16" rx="13" ry="12" fill="#ffd700" opacity="0.08"/>
  <!-- Bag body -->
  <path d="M8,14 Q6,18 6,22 Q6,28 12,29 L20,29 Q26,28 26,22 Q26,18 24,14 Z" fill="#8B6914"/>
  <path d="M9,15 Q7,19 7,22 Q7,27 12,28 L20,28 Q25,27 25,22 Q25,19 23,15 Z" fill="#a07a1e"/>
  <!-- Bag fabric folds -->
  <path d="M10,16 Q9,20 9,24" fill="none" stroke="#7a5a10" stroke-width="0.7" opacity="0.5"/>
  <path d="M22,16 Q23,20 23,24" fill="none" stroke="#7a5a10" stroke-width="0.7" opacity="0.5"/>
  <path d="M14,16 Q13,22 14,28" fill="none" stroke="#7a5a10" stroke-width="0.4" opacity="0.3"/>
  <path d="M18,16 Q19,22 18,28" fill="none" stroke="#7a5a10" stroke-width="0.4" opacity="0.3"/>
  <!-- Bag highlight -->
  <path d="M10,16 Q9,20 10,26 Q12,28 14,28 Q12,26 11,22 Q10,18 11,16 Z" fill="#c09830" opacity="0.3"/>
  <!-- Bag top (cinched) -->
  <path d="M8,14 Q10,10 12,12 Q14,14 16,11 Q18,14 20,12 Q22,10 24,14" fill="#8B6914" stroke="#6a4a0e" stroke-width="0.5"/>
  <path d="M9,13 Q11,11 13,12.5 Q15,14 16,11.5 Q17,14 19,12.5 Q21,11 23,13" fill="#a07a1e" opacity="0.6"/>
  <!-- Rope tie -->
  <ellipse cx="16" cy="12" rx="5" ry="1.5" fill="none" stroke="#5a3a08" stroke-width="1.2"/>
  <ellipse cx="16" cy="12" rx="4.5" ry="1" fill="none" stroke="#8a6a20" stroke-width="0.5" opacity="0.5"/>
  <!-- Rope knot -->
  <circle cx="16" cy="10.5" r="1.5" fill="#5a3a08"/>
  <circle cx="16" cy="10.5" r="1" fill="#7a5a18" opacity="0.5"/>
  <!-- Dollar/coin symbol on bag -->
  <path d="M16,18 L16,26" stroke="#c8a030" stroke-width="0.8" opacity="0.6" stroke-linecap="round"/>
  <path d="M13.5,20 Q13,19 14,18.5 Q16,18 18,19 Q19,19.5 18.5,20.5 Q18,21 16,21.5 Q14,22 13.5,23 Q13,24 14,24.5 Q16,25 18,24" fill="none" stroke="#c8a030" stroke-width="1" opacity="0.6" stroke-linecap="round"/>
  <!-- Coins peeking out top -->
  <ellipse cx="13" cy="11" rx="2" ry="1.2" fill="#e8b830"/>
  <ellipse cx="13" cy="11" rx="1.5" ry="0.8" fill="#f0d040" opacity="0.6"/>
  <ellipse cx="19" cy="11" rx="2" ry="1.2" fill="#daa520"/>
  <ellipse cx="19" cy="11" rx="1.5" ry="0.8" fill="#f0c838" opacity="0.6"/>
  <ellipse cx="16" cy="9.5" rx="1.8" ry="1" fill="#e8b830"/>
  <ellipse cx="16" cy="9.5" rx="1.2" ry="0.6" fill="#f0d040" opacity="0.5"/>
  <!-- Scattered coins at base -->
  <ellipse cx="6" cy="28" rx="2" ry="1" fill="#daa520" opacity="0.7"/>
  <ellipse cx="6" cy="28" rx="1.3" ry="0.6" fill="#f0c838" opacity="0.4"/>
  <ellipse cx="27" cy="27" rx="1.8" ry="0.9" fill="#e0a828" opacity="0.6"/>
  <!-- Sparkles -->
  <path d="M6,6 L6.4,4.5 L6.8,6 L6.4,7.5 Z" fill="#fff8c0" opacity="0.7"/>
  <path d="M26,5 L26.3,4 L26.6,5 L26.3,6 Z" fill="#fff8c0" opacity="0.6"/>
  <path d="M4,16 L4.3,15 L4.6,16 L4.3,17 Z" fill="#fff8c0" opacity="0.5"/>
</svg>