<svg xmlns="http://www.w3.org/2000/svg" viewBox="0 0 32 32" width="32" height="32">
  <!-- Parchment roll background -->
  <path d="M5,4 L24,3 Q26,3 26,5 L27,25 Q27,27 25,27 L6,28 Q4,28 4,26 Z" fill="#d4c4a0" stroke="#8B7355" stroke-width="0.6"/>
  <!-- Parchment aging/texture -->
  <path d="M6,5 L24,4 L25,24 L5,25 Z" fill="#c9b890" opacity="0.5"/>
  <path d="M8,8 Q12,7 16,8 Q20,7 24,8" stroke="#b0a070" stroke-width="0.3" opacity="0.4" fill="none"/>
  <path d="M7,14 Q14,13 20,14" stroke="#b0a070" stroke-width="0.3" opacity="0.3" fill="none"/>
  <!-- Rolled top edge -->
  <ellipse cx="14.5" cy="3.5" rx="10" ry="1.5" fill="#c9b890" stroke="#8B7355" stroke-width="0.4"/>
  <ellipse cx="14.5" cy="3.5" rx="10" ry="0.8" fill="#d4c4a0" opacity="0.6"/>
  <!-- Rolled bottom edge -->
  <ellipse cx="15.5" cy="27.5" rx="10.5" ry="1.5" fill="#c9b890" stroke="#8B7355" stroke-width="0.4"/>
  <ellipse cx="15.5" cy="27.5" rx="10.5" ry="0.8" fill="#d4c4a0" opacity="0.6"/>
  <!-- Map lines - coastline -->
  <path d="M8,8 Q10,10 9,13 Q8,16 10,18 Q12,20 10,23" fill="none" stroke="#6a5a40" stroke-width="0.6" opacity="0.7"/>
  <path d="M14,6 Q16,9 18,8 Q20,7 22,10 Q24,13 22,16" fill="none" stroke="#6a5a40" stroke-width="0.5" opacity="0.6"/>
  <!-- Map terrain marks -->
  <path d="M12,10 L13,8 L14,10" fill="none" stroke="#5a6a40" stroke-width="0.4" opacity="0.5"/>
  <path d="M16,12 L17,10 L18,12" fill="none" stroke="#5a6a40" stroke-width="0.4" opacity="0.5"/>
  <path d="M11,16 L12,14 L13,16" fill="none" stroke="#5a6a40" stroke-width="0.4" opacity="0.5"/>
  <!-- Map dotted path -->
  <path d="M9,20 Q13,18 17,20 Q21,22 24,20" fill="none" stroke="#8B1A1A" stroke-width="0.5" stroke-dasharray="1,1" opacity="0.6"/>
  <!-- X marks the spot -->
  <path d="M22,18 L24,20 M24,18 L22,20" stroke="#8B1A1A" stroke-width="0.8" stroke-linecap="round" opacity="0.8"/>
  <!-- Compass rose (small, corner) -->
  <circle cx="21" cy="10" r="2.5" fill="none" stroke="#8B6914" stroke-width="0.4" opacity="0.5"/>
  <path d="M21,7.5 L21,12.5 M18.5,10 L23.5,10" stroke="#8B6914" stroke-width="0.3" opacity="0.5"/>
  <path d="M21,8 L21.4,10 L21,9 L20.6,10 Z" fill="#8B1A1A" opacity="0.5"/>
  <!-- Wax seal -->
  <circle cx="8" cy="23" r="2" fill="#8B1A1A" stroke="#5a0f0f" stroke-width="0.3"/>
  <circle cx="8" cy="23" r="1.2" fill="#a02020" opacity="0.6"/>
  <circle cx="7.5" cy="22.5" r="0.4" fill="#c04040" opacity="0.4"/>
</svg>