<svg xmlns="http://www.w3.org/2000/svg" viewBox="0 0 32 32" width="32" height="32">
  <!-- Background vortex glow -->
  <circle cx="16" cy="16" r="14" fill="#639" opacity="0.1"/>
  <circle cx="16" cy="16" r="10" fill="#74a" opacity="0.12"/>
  <!-- Swirl rings -->
  <circle cx="16" cy="16" r="12" stroke="#96c" stroke-width="0.8" fill="none" opacity="0.3">
  </circle>
  <circle cx="16" cy="16" r="9" stroke="#a7d" stroke-width="0.6" fill="none" opacity="0.25"/>
  <circle cx="16" cy="16" r="6" stroke="#b8e" stroke-width="0.5" fill="none" opacity="0.2"/>
  <!-- Swirl arms -->
  <path d="M16 4 Q24 8 24 16 Q24 20 20 22" stroke="#96c" stroke-width="1.2" fill="none" opacity="0.5" stroke-linecap="round"/>
  <path d="M16 28 Q8 24 8 16 Q8 12 12 10" stroke="#96c" stroke-width="1.2" fill="none" opacity="0.5" stroke-linecap="round"/>
  <path d="M4 16 Q8 8 16 8 Q20 8 22 12" stroke="#a7d" stroke-width="1" fill="none" opacity="0.4" stroke-linecap="round"/>
  <path d="M28 16 Q24 24 16 24 Q12 24 10 20" stroke="#a7d" stroke-width="1" fill="none" opacity="0.4" stroke-linecap="round"/>
  <!-- Central blade 1 (vertical) -->
  <path d="M16 6 L14 16 L16 18 L18 16 Z" fill="#ccc"/>
  <path d="M16 6 L15 16 L16 18 Z" fill="#eee" opacity="0.4"/>
  <path d="M16 6 L16.5 10" stroke="white" stroke-width="0.4" opacity="0.5"/>
  <!-- Central blade 2 (horizontal) -->
  <path d="M6 16 L16 14 L18 16 L16 18 Z" fill="#bbb"/>
  <path d="M6 16 L16 15 L18 16 Z" fill="#ddd" opacity="0.4"/>
  <!-- Central blade 3 -->
  <path d="M26 16 L16 18 L14 16 L16 14 Z" fill="#aab"/>
  <path d="M16 26 L18 16 L16 14 L14 16 Z" fill="#aab"/>
  <!-- Center gem -->
  <circle cx="16" cy="16" r="2.5" fill="#639"/>
  <circle cx="16" cy="16" r="2.5" fill="#96c" opacity="0.5"/>
  <circle cx="16" cy="16" r="1.5" fill="#b8e" opacity="0.4"/>
  <circle cx="15.3" cy="15.3" r="0.7" fill="white" opacity="0.4"/>
  <!-- Edge particles -->
  <circle cx="5" cy="10" r="0.5" fill="#b8e" opacity="0.5"/>
  <circle cx="27" cy="10" r="0.4" fill="#b8e" opacity="0.4"/>
  <circle cx="5" cy="22" r="0.4" fill="#96c" opacity="0.4"/>
  <circle cx="27" cy="22" r="0.5" fill="#96c" opacity="0.5"/>
</svg>