<svg xmlns="http://www.w3.org/2000/svg" viewBox="0 0 32 32" width="32" height="32">
  <!-- Defense aura background -->
  <ellipse cx="16" cy="16" rx="14" ry="14" fill="#4a7a9b" opacity="0.15"/>
  <ellipse cx="16" cy="16" rx="11" ry="11" fill="#6ab0e0" opacity="0.12"/>
  <!-- Aura rings -->
  <circle cx="16" cy="16" r="13" fill="none" stroke="#7ec8f0" stroke-width="0.6" opacity="0.35"/>
  <circle cx="16" cy="16" r="11" fill="none" stroke="#a0d8ff" stroke-width="0.4" opacity="0.25"/>
  <!-- Gauntlet base -->
  <path d="M10 22 L10 14 Q10 10 14 9 L18 9 Q22 10 22 14 L22 22 Q22 24 20 25 L12 25 Q10 24 10 22Z" fill="#5a5a64"/>
  <path d="M10 22 L10 14 Q10 10 14 9 L18 9 Q22 10 22 14 L22 22 Q22 24 20 25 L12 25 Q10 24 10 22Z" fill="url(#eg1)" opacity="0.6"/>
  <!-- Metal plates -->
  <rect x="11" y="11" width="10" height="3" rx="0.5" fill="#6e6e78" stroke="#4a4a52" stroke-width="0.3"/>
  <rect x="11" y="15" width="10" height="3" rx="0.5" fill="#6e6e78" stroke="#4a4a52" stroke-width="0.3"/>
  <rect x="11" y="19" width="10" height="3" rx="0.5" fill="#6e6e78" stroke="#4a4a52" stroke-width="0.3"/>
  <!-- Plate highlights -->
  <rect x="12" y="11.5" width="8" height="1" rx="0.3" fill="#9a9aaa" opacity="0.45"/>
  <rect x="12" y="15.5" width="8" height="1" rx="0.3" fill="#9a9aaa" opacity="0.45"/>
  <rect x="12" y="19.5" width="8" height="1" rx="0.3" fill="#9a9aaa" opacity="0.45"/>
  <!-- Knuckle ridges -->
  <ellipse cx="12.5" cy="10" rx="1.2" ry="1.5" fill="#72727e"/>
  <ellipse cx="16" cy="9.5" rx="1.2" ry="1.5" fill="#72727e"/>
  <ellipse cx="19.5" cy="10" rx="1.2" ry="1.5" fill="#72727e"/>
  <ellipse cx="12.5" cy="10" rx="0.6" ry="0.7" fill="#9898a8" opacity="0.5"/>
  <ellipse cx="16" cy="9.5" rx="0.6" ry="0.7" fill="#9898a8" opacity="0.5"/>
  <ellipse cx="19.5" cy="10" rx="0.6" ry="0.7" fill="#9898a8" opacity="0.5"/>
  <!-- Fingers curled -->
  <path d="M11 9 Q11 7 12.5 6.5 Q13.5 7 13 9" fill="#5a5a64" stroke="#4a4a52" stroke-width="0.3"/>
  <path d="M14.5 8.5 Q14.5 6.5 16 6 Q17.5 6.5 17.5 8.5" fill="#5a5a64" stroke="#4a4a52" stroke-width="0.3"/>
  <path d="M19 9 Q19 7 19.5 6.5 Q20.5 7 21 9" fill="#5a5a64" stroke="#4a4a52" stroke-width="0.3"/>
  <!-- Finger highlights -->
  <path d="M12 8 Q12.5 7 13 8" fill="none" stroke="white" stroke-width="0.3" opacity="0.3"/>
  <path d="M15.5 7.5 Q16 6.5 16.5 7.5" fill="none" stroke="white" stroke-width="0.3" opacity="0.3"/>
  <!-- Wrist guard -->
  <rect x="9" y="23" width="14" height="3" rx="1" fill="#4e4e58" stroke="#3a3a42" stroke-width="0.4"/>
  <rect x="10" y="23.5" width="12" height="1.2" rx="0.4" fill="#7a7a8a" opacity="0.3"/>
  <!-- Rivets -->
  <circle cx="10.5" cy="24.5" r="0.6" fill="#888898" stroke="#3a3a42" stroke-width="0.2"/>
  <circle cx="21.5" cy="24.5" r="0.6" fill="#888898" stroke="#3a3a42" stroke-width="0.2"/>
  <!-- Defense glow -->
  <circle cx="16" cy="15" r="6" fill="#4a90c0" opacity="0.08"/>
  <circle cx="16" cy="15" r="3" fill="#70b8e8" opacity="0.06"/>
  <!-- Edge highlights -->
  <path d="M11 14 L11 22" stroke="white" stroke-width="0.4" opacity="0.15"/>
  <path d="M21 14 L21 22" stroke="white" stroke-width="0.4" opacity="0.1"/>
  <defs>
    <linearGradient id="eg1" x1="0" y1="0" x2="1" y2="1">
      <stop offset="0%" stop-color="#aaaacc" stop-opacity="0.4"/>
      <stop offset="100%" stop-color="#333344" stop-opacity="0.6"/>
    </linearGradient>
  </defs>
</svg>