<svg xmlns="http://www.w3.org/2000/svg" viewBox="0 0 32 32" width="32" height="32">
  <!-- Outer fire glow -->
  <circle cx="16" cy="16" r="14" fill="#f80" opacity="0.08"/>
  <circle cx="16" cy="16" r="10" fill="#fa0" opacity="0.1"/>
  <!-- Rune circle outer -->
  <circle cx="16" cy="16" r="12" stroke="#f60" stroke-width="0.8" fill="none" opacity="0.5"/>
  <circle cx="16" cy="16" r="11" stroke="#f80" stroke-width="0.4" fill="none" opacity="0.3"/>
  <!-- Rune circle inner -->
  <circle cx="16" cy="16" r="8" stroke="#f60" stroke-width="0.6" fill="none" opacity="0.4"/>
  <!-- Rune symbols on outer ring -->
  <path d="M16 4 L15 6 L17 6 Z" fill="#f80" opacity="0.6"/>
  <path d="M16 28 L15 26 L17 26 Z" fill="#f80" opacity="0.6"/>
  <path d="M4 16 L6 15 L6 17 Z" fill="#f80" opacity="0.6"/>
  <path d="M28 16 L26 15 L26 17 Z" fill="#f80" opacity="0.6"/>
  <!-- Diagonal rune marks -->
  <line x1="7" y1="7" x2="9" y2="9" stroke="#f80" stroke-width="0.8" opacity="0.5" stroke-linecap="round"/>
  <line x1="25" y1="7" x2="23" y2="9" stroke="#f80" stroke-width="0.8" opacity="0.5" stroke-linecap="round"/>
  <line x1="7" y1="25" x2="9" y2="23" stroke="#f80" stroke-width="0.8" opacity="0.5" stroke-linecap="round"/>
  <line x1="25" y1="25" x2="23" y2="23" stroke="#f80" stroke-width="0.8" opacity="0.5" stroke-linecap="round"/>
  <!-- Central fireball -->
  <path d="M16 8 Q20 10 20 14 Q22 12 21 16 Q23 15 20 19 Q21 21 18 21 Q19 23 16 22 Q13 23 14 21 Q11 21 12 19 Q9 15 11 16 Q10 12 12 14 Q12 10 16 8 Z" fill="#f60"/>
  <path d="M16 8 Q20 10 20 14 Q22 12 21 16 Q23 15 20 19 Q21 21 18 21 Q19 23 16 22" fill="#f80" opacity="0.5"/>
  <!-- Inner fire -->
  <path d="M16 11 Q18 13 18 15 Q19 14 18.5 17 Q19 18 17 18.5 Q18 20 16 19 Q14 20 15 18.5 Q13 18 13.5 17 Q13 14 14 15 Q14 13 16 11 Z" fill="#fa0"/>
  <path d="M16 11 Q18 13 18 15 Q19 14 18.5 17" fill="#fc0" opacity="0.5"/>
  <!-- Fire core -->
  <ellipse cx="16" cy="16" rx="2" ry="3" fill="#fe0" opacity="0.7"/>
  <ellipse cx="16" cy="15.5" rx="1" ry="2" fill="white" opacity="0.3"/>
  <!-- Ember particles -->
  <circle cx="12" cy="6" r="0.5" fill="#f80" opacity="0.5"/>
  <circle cx="21" cy="7" r="0.4" fill="#fa0" opacity="0.4"/>
  <circle cx="8" cy="12" r="0.3" fill="#f60" opacity="0.4"/>
  <circle cx="24" cy="11" r="0.4" fill="#fa0" opacity="0.5"/>
</svg>