<svg xmlns="http://www.w3.org/2000/svg" viewBox="0 0 32 32" width="32" height="32">
  <!-- Frost aura -->
  <circle cx="16" cy="16" r="14" fill="#8cf" opacity="0.08"/>
  <circle cx="16" cy="16" r="10" fill="#adf" opacity="0.1"/>
  <!-- Weapon handle -->
  <rect x="14.5" y="18" width="3" height="12" rx="0.5" fill="#6a4a2a"/>
  <rect x="15" y="18" width="1.5" height="12" rx="0.3" fill="#8a6a4a" opacity="0.5"/>
  <!-- Weapon head (axe/mace) -->
  <path d="M10 8 L16 4 L22 8 L20 14 L16 16 L12 14 Z" fill="#8899aa"/>
  <path d="M10 8 L16 4 L16 16 L12 14 Z" fill="#99aabb" opacity="0.5"/>
  <path d="M10 8 L16 4 L22 8 L20 14 L16 16 L12 14 Z" stroke="#667788" stroke-width="0.6" fill="none"/>
  <!-- Ice crystals on weapon -->
  <path d="M8 7 L10 10 L7 10 Z" fill="#bef" opacity="0.7"/>
  <path d="M8 7 L9 9" stroke="white" stroke-width="0.3" opacity="0.5"/>
  <path d="M24 7 L22 10 L25 10 Z" fill="#bef" opacity="0.7"/>
  <path d="M24 7 L23 9" stroke="white" stroke-width="0.3" opacity="0.5"/>
  <path d="M16 2 L14.5 5 L17.5 5 Z" fill="#cef" opacity="0.8"/>
  <path d="M16 2 L15.5 4" stroke="white" stroke-width="0.3" opacity="0.5"/>
  <!-- Frost chains left -->
  <circle cx="7" cy="16" r="1.5" stroke="#8cf" stroke-width="0.8" fill="none" opacity="0.6"/>
  <circle cx="5" cy="19" r="1.5" stroke="#8cf" stroke-width="0.8" fill="none" opacity="0.5"/>
  <circle cx="4" cy="22" r="1.5" stroke="#8cf" stroke-width="0.7" fill="none" opacity="0.4"/>
  <line x1="8" y1="17" x2="6" y2="18" stroke="#8cf" stroke-width="0.5" opacity="0.4"/>
  <line x1="4" y1="20" x2="3.5" y2="21" stroke="#8cf" stroke-width="0.5" opacity="0.3"/>
  <!-- Frost chains right -->
  <circle cx="25" cy="16" r="1.5" stroke="#8cf" stroke-width="0.8" fill="none" opacity="0.6"/>
  <circle cx="27" cy="19" r="1.5" stroke="#8cf" stroke-width="0.8" fill="none" opacity="0.5"/>
  <circle cx="28" cy="22" r="1.5" stroke="#8cf" stroke-width="0.7" fill="none" opacity="0.4"/>
  <line x1="24" y1="17" x2="26" y2="18" stroke="#8cf" stroke-width="0.5" opacity="0.4"/>
  <line x1="28" y1="20" x2="28.5" y2="21" stroke="#8cf" stroke-width="0.5" opacity="0.3"/>
  <!-- Ice frost particles -->
  <circle cx="10" cy="13" r="0.4" fill="#def" opacity="0.6"/>
  <circle cx="22" cy="13" r="0.4" fill="#def" opacity="0.6"/>
  <circle cx="6" cy="14" r="0.3" fill="white" opacity="0.4"/>
  <circle cx="26" cy="14" r="0.3" fill="white" opacity="0.4"/>
  <!-- Weapon highlight -->
  <path d="M13 8 L16 5 L16 12" stroke="white" stroke-width="0.5" opacity="0.25" fill="none"/>
  <!-- Ice encrust on blade -->
  <path d="M12 10 Q14 9 16 10 Q18 9 20 10" stroke="#bef" stroke-width="0.8" fill="none" opacity="0.5"/>
  <path d="M13 12 Q15 11 17 12 Q19 11 19 13" stroke="#bef" stroke-width="0.6" fill="none" opacity="0.4"/>
</svg>