<svg xmlns="http://www.w3.org/2000/svg" viewBox="0 0 32 32" width="32" height="32">
  <!-- Shadow -->
  <ellipse cx="16" cy="29" rx="12" ry="2.5" fill="#1a0a00" opacity="0.2"/>
  <!-- Gold sparkle glow -->
  <ellipse cx="16" cy="14" rx="12" ry="10" fill="#ccaa30" opacity="0.06"/>
  <!-- Chest body -->
  <rect x="4" y="14" width="24" height="13" rx="1.5" fill="#6b3a10"/>
  <rect x="4" y="14" width="24" height="13" rx="1.5" fill="url(#ri1)" opacity="0.6"/>
  <rect x="4" y="14" width="24" height="13" rx="1.5" fill="none" stroke="#4a2808" stroke-width="0.6"/>
  <!-- Chest wood planks -->
  <line x1="4" y1="19" x2="28" y2="19" stroke="#5a3010" stroke-width="0.4" opacity="0.5"/>
  <line x1="4" y1="23" x2="28" y2="23" stroke="#5a3010" stroke-width="0.4" opacity="0.5"/>
  <!-- Chest lid (open, tilted back) -->
  <path d="M4 14 L4 10 Q4 7 6 7 L26 7 Q28 7 28 10 L28 14Z" fill="#7a4418"/>
  <path d="M4 14 L4 10 Q4 7 6 7 L26 7 Q28 7 28 10 L28 14Z" fill="url(#ri2)" opacity="0.5"/>
  <path d="M4 14 L4 10 Q4 7 6 7 L26 7 Q28 7 28 10 L28 14Z" fill="none" stroke="#4a2808" stroke-width="0.6"/>
  <!-- Lid top highlight -->
  <path d="M6 8 L26 8 Q27 8 27 9" stroke="#9a6428" stroke-width="0.4" opacity="0.5"/>
  <!-- Metal bands on chest -->
  <rect x="3.5" y="13.5" width="25" height="1.5" rx="0.3" fill="#c8a030" stroke="#a08020" stroke-width="0.3"/>
  <rect x="4" y="13.8" width="24" height="0.5" rx="0.2" fill="#e8d060" opacity="0.35"/>
  <!-- Vertical metal bands -->
  <rect x="9" y="14" width="1.2" height="13" fill="#c8a030" stroke="#a08020" stroke-width="0.2" opacity="0.7"/>
  <rect x="21.5" y="14" width="1.2" height="13" fill="#c8a030" stroke="#a08020" stroke-width="0.2" opacity="0.7"/>
  <!-- Lock plate -->
  <rect x="14" y="15" width="4" height="3" rx="0.5" fill="#c8a030" stroke="#a08020" stroke-width="0.3"/>
  <circle cx="16" cy="16.5" r="0.6" fill="#4a2808"/>
  <rect x="14.3" y="15.3" width="3.4" height="0.6" rx="0.2" fill="#e8d060" opacity="0.3"/>
  <!-- Gold coins overflowing -->
  <!-- Back row coins -->
  <ellipse cx="10" cy="12" rx="2.2" ry="1" fill="#ddaa20" stroke="#aa8010" stroke-width="0.3"/>
  <ellipse cx="10" cy="11.7" rx="1.5" ry="0.5" fill="#eec840" opacity="0.4"/>
  <ellipse cx="15" cy="11" rx="2.2" ry="1" fill="#ddaa20" stroke="#aa8010" stroke-width="0.3"/>
  <ellipse cx="15" cy="10.7" rx="1.5" ry="0.5" fill="#eec840" opacity="0.4"/>
  <ellipse cx="20" cy="11.5" rx="2.2" ry="1" fill="#ddaa20" stroke="#aa8010" stroke-width="0.3"/>
  <ellipse cx="20" cy="11.2" rx="1.5" ry="0.5" fill="#eec840" opacity="0.4"/>
  <!-- Front row coins -->
  <ellipse cx="8" cy="13.5" rx="2" ry="0.9" fill="#ddaa20" stroke="#aa8010" stroke-width="0.3"/>
  <ellipse cx="12.5" cy="13" rx="2" ry="0.9" fill="#ddaa20" stroke="#aa8010" stroke-width="0.3"/>
  <ellipse cx="17" cy="12.5" rx="2" ry="0.9" fill="#ddaa20" stroke="#aa8010" stroke-width="0.3"/>
  <ellipse cx="22" cy="13" rx="2" ry="0.9" fill="#ddaa20" stroke="#aa8010" stroke-width="0.3"/>
  <!-- Stacked coins on left -->
  <ellipse cx="7" cy="10" rx="1.8" ry="0.8" fill="#cc9918" stroke="#aa8010" stroke-width="0.2"/>
  <ellipse cx="7" cy="9.5" rx="1.8" ry="0.8" fill="#ddaa20" stroke="#aa8010" stroke-width="0.2"/>
  <ellipse cx="7" cy="9.2" rx="1.2" ry="0.4" fill="#eec840" opacity="0.4"/>
  <!-- Fallen coin on right -->
  <ellipse cx="25" cy="12" rx="1.5" ry="2" fill="#ddaa20" stroke="#aa8010" stroke-width="0.3"/>
  <ellipse cx="24.8" cy="12" rx="0.8" ry="1.3" fill="#eec840" opacity="0.3"/>
  <!-- Sparkles -->
  <path d="M6 6 L6.3 5 L6.6 6 L7.5 6.3 L6.6 6.6 L6.3 7.5 L6 6.6 L5 6.3Z" fill="#ffee80" opacity="0.7"/>
  <path d="M24 5 L24.2 4.3 L24.4 5 L25 5.2 L24.4 5.4 L24.2 6 L24 5.4 L23.4 5.2Z" fill="#ffee80" opacity="0.6"/>
  <path d="M13 7 L13.15 6.5 L13.3 7 L13.8 7.15 L13.3 7.3 L13.15 7.8 L13 7.3 L12.5 7.15Z" fill="#ffee80" opacity="0.5"/>
  <path d="M21 8 L21.15 7.5 L21.3 8 L21.8 8.15 L21.3 8.3 L21.15 8.8 L21 8.3 L20.5 8.15Z" fill="white" opacity="0.5"/>
  <circle cx="10" cy="5" r="0.3" fill="#ffee80" opacity="0.4"/>
  <circle cx="18" cy="4" r="0.25" fill="#ffee80" opacity="0.4"/>
  <!-- Chest feet -->
  <rect x="5" y="26.5" width="2" height="1.5" rx="0.3" fill="#4a2808"/>
  <rect x="25" y="26.5" width="2" height="1.5" rx="0.3" fill="#4a2808"/>
  <defs>
    <linearGradient id="ri1" x1="0" y1="0" x2="0" y2="1">
      <stop offset="0%" stop-color="#8a5420"/>
      <stop offset="100%" stop-color="#4a2808"/>
    </linearGradient>
    <linearGradient id="ri2" x1="0" y1="0" x2="0" y2="1">
      <stop offset="0%" stop-color="#9a6428"/>
      <stop offset="100%" stop-color="#6a3a10"/>
    </linearGradient>
  </defs>
</svg>