<svg xmlns="http://www.w3.org/2000/svg" viewBox="0 0 32 32" width="32" height="32">
  <!-- Green slime gel blob -->
  <ellipse cx="16" cy="24" rx="12" ry="3" fill="#226633" opacity="0.3"/>
  <path d="M6,18 Q4,14 8,10 Q12,7 16,8 Q20,7 24,10 Q28,14 26,18 Q26,24 22,26 L10,26 Q6,24 6,18Z" fill="#44cc55"/>
  <path d="M8,16 Q7,12 10,10 Q14,8 16,9 L16,18 Q12,20 8,18Z" fill="#66dd77" opacity="0.5"/>
  <path d="M18,10 Q22,8 24,12 Q26,16 24,18 L16,18 L16,9Z" fill="#33bb44" opacity="0.4"/>
  <!-- Gel highlights -->
  <ellipse cx="11" cy="13" rx="2" ry="1.5" fill="#88ff99" opacity="0.4"/>
  <circle cx="10" cy="12" r="0.7" fill="#ffffff" opacity="0.5"/>
  <!-- Bubbles inside -->
  <circle cx="14" cy="16" r="1.2" fill="#66ee77" opacity="0.3"/>
  <circle cx="20" cy="14" r="0.9" fill="#66ee77" opacity="0.25"/>
  <circle cx="12" cy="20" r="0.8" fill="#66ee77" opacity="0.2"/>
  <!-- Drip -->
  <path d="M22,22 Q23,24 22,26" fill="none" stroke="#44cc55" stroke-width="0.8" opacity="0.5" stroke-linecap="round"/>
</svg>