<svg xmlns="http://www.w3.org/2000/svg" viewBox="0 0 32 32" width="32" height="32">
  <!-- Ghostly arcane familiar spirit -->
  <!-- Ethereal glow -->
  <ellipse cx="16" cy="16" rx="12" ry="12" fill="#8855cc" opacity="0.08"/>
  <!-- Ghost body -->
  <path d="M10,10 Q10,4 16,4 Q22,4 22,10 L22,22 Q21,20 19,22 Q17,20 16,22 Q15,20 13,22 Q11,20 10,22Z" fill="#aa88dd" opacity="0.6"/>
  <!-- Inner body highlight -->
  <path d="M12,10 Q12,6 16,6 Q20,6 20,10 L20,18 Q18,16 16,18 Q14,16 12,18Z" fill="#ccaaff" opacity="0.3"/>
  <!-- Eyes -->
  <ellipse cx="13" cy="12" rx="1.8" ry="2" fill="#ffffff" opacity="0.8"/>
  <circle cx="13.5" cy="12.5" r="0.8" fill="#4422aa"/>
  <circle cx="13.5" cy="12" r="0.3" fill="#ffffff" opacity="0.6"/>
  <ellipse cx="19" cy="12" rx="1.8" ry="2" fill="#ffffff" opacity="0.8"/>
  <circle cx="19.5" cy="12.5" r="0.8" fill="#4422aa"/>
  <circle cx="19.5" cy="12" r="0.3" fill="#ffffff" opacity="0.6"/>
  <!-- Mouth -->
  <ellipse cx="16" cy="16" rx="1.5" ry="1" fill="#4422aa" opacity="0.4"/>
  <!-- Arcane runes orbiting -->
  <circle cx="6" cy="14" r="1.2" fill="#aa77ff" opacity="0.5"/>
  <circle cx="6" cy="14" r="0.5" fill="#ddbbff" opacity="0.4"/>
  <circle cx="26" cy="12" r="1" fill="#aa77ff" opacity="0.4"/>
  <circle cx="26" cy="12" r="0.4" fill="#ddbbff" opacity="0.3"/>
  <circle cx="8" cy="24" r="0.8" fill="#aa77ff" opacity="0.35"/>
  <circle cx="24" cy="22" r="0.9" fill="#aa77ff" opacity="0.35"/>
  <!-- Orbital trail -->
  <path d="M6,14 Q4,20 8,24" fill="none" stroke="#aa77ff" stroke-width="0.3" opacity="0.3" stroke-dasharray="1,2"/>
  <path d="M26,12 Q28,18 24,22" fill="none" stroke="#aa77ff" stroke-width="0.3" opacity="0.3" stroke-dasharray="1,2"/>
  <!-- Ghost tail wisps -->
  <path d="M10,22 Q8,26 10,28" fill="none" stroke="#aa88dd" stroke-width="0.5" opacity="0.3" stroke-linecap="round"/>
  <path d="M22,22 Q24,26 22,28" fill="none" stroke="#aa88dd" stroke-width="0.5" opacity="0.3" stroke-linecap="round"/>
</svg>