<svg xmlns="http://www.w3.org/2000/svg" viewBox="0 0 32 32" width="32" height="32">
  <!-- Glowing golden crown -->
  <!-- Crown glow -->
  <ellipse cx="16" cy="18" rx="14" ry="10" fill="#ffdd44" opacity="0.1"/>
  <ellipse cx="16" cy="18" rx="10" ry="7" fill="#ffdd44" opacity="0.1"/>
  <!-- Crown base -->
  <path d="M5,20 L5,14 L10,18 L16,10 L22,18 L27,14 L27,20Z" fill="#daa520"/>
  <!-- Crown base bottom -->
  <rect x="5" y="20" width="22" height="4" rx="0.5" fill="#c4984a"/>
  <rect x="5" y="20" width="22" height="1.5" rx="0.3" fill="#daa520" opacity="0.6"/>
  <!-- Crown highlight -->
  <path d="M6,19 L6,15 L10,18" fill="#eebb33" opacity="0.5"/>
  <path d="M12,17 L16,11 L18,15" fill="#eebb33" opacity="0.4"/>
  <!-- Crown rim detail -->
  <rect x="5" y="23" width="22" height="1" rx="0.3" fill="#8B6914" opacity="0.5"/>
  <!-- Jewels -->
  <circle cx="10" cy="21.5" r="1.2" fill="#cc2233"/>
  <circle cx="10" cy="21" r="0.4" fill="#ff6677" opacity="0.6"/>
  <circle cx="16" cy="21.5" r="1.4" fill="#2244cc"/>
  <circle cx="15.5" cy="21" r="0.5" fill="#6688ff" opacity="0.6"/>
  <circle cx="22" cy="21.5" r="1.2" fill="#cc2233"/>
  <circle cx="22" cy="21" r="0.4" fill="#ff6677" opacity="0.6"/>
  <!-- Crown point tips -->
  <circle cx="5" cy="14" r="1" fill="#daa520"/>
  <circle cx="16" cy="10" r="1.2" fill="#daa520"/>
  <circle cx="27" cy="14" r="1" fill="#daa520"/>
  <!-- Radiant lines -->
  <line x1="16" y1="7" x2="16" y2="4" stroke="#ffee88" stroke-width="0.6" opacity="0.5" stroke-linecap="round"/>
  <line x1="10" y1="10" x2="8" y2="7" stroke="#ffee88" stroke-width="0.5" opacity="0.4" stroke-linecap="round"/>
  <line x1="22" y1="10" x2="24" y2="7" stroke="#ffee88" stroke-width="0.5" opacity="0.4" stroke-linecap="round"/>
</svg>