<svg xmlns="http://www.w3.org/2000/svg" viewBox="0 0 32 32" width="32" height="32">
  <!-- Blood drop with inner fire - desperate power -->
  <!-- Outer blood drop -->
  <path d="M16,3 Q10,14 8,18 Q6,24 10,27 Q13,30 16,30 Q19,30 22,27 Q26,24 24,18 Q22,14 16,3Z" fill="#8b0000"/>
  <!-- Mid tone -->
  <path d="M16,5 Q11,14 9.5,18 Q8,23 11,26 Q13,28 16,28 Q19,28 21,26 Q24,23 22.5,18 Q21,14 16,5Z" fill="#cc2233"/>
  <!-- Inner glow - the rage -->
  <path d="M16,10 Q13,16 12,19 Q11,22 13,24 Q14.5,25.5 16,25.5 Q17.5,25.5 19,24 Q21,22 20,19 Q19,16 16,10Z" fill="#ff4444" opacity="0.6"/>
  <!-- Fiery core -->
  <path d="M16,15 Q14,19 14,21 Q14,23 16,23 Q18,23 18,21 Q18,19 16,15Z" fill="#ff6633" opacity="0.5"/>
  <!-- Highlight -->
  <path d="M13,14 Q12.5,17 13,20" fill="none" stroke="#ff8888" stroke-width="0.7" opacity="0.4" stroke-linecap="round"/>
  <circle cx="13.5" cy="13" r="0.8" fill="#ffffff" opacity="0.3"/>
  <!-- Drip -->
  <ellipse cx="16" cy="30.5" rx="1.5" ry="0.8" fill="#660000" opacity="0.5"/>
</svg>