<svg xmlns="http://www.w3.org/2000/svg" viewBox="0 0 32 32" width="32" height="32">
  <!-- Glowing leaf with healing sparkles -->
  <!-- Soft glow -->
  <ellipse cx="16" cy="16" rx="12" ry="12" fill="#44bb66" opacity="0.1"/>
  <!-- Main leaf -->
  <path d="M16,4 Q6,10 6,18 Q6,24 16,28 Q26,24 26,18 Q26,10 16,4Z" fill="#33aa55"/>
  <!-- Leaf highlight -->
  <path d="M16,6 Q8,12 8,18 Q8,22 14,25 L16,20 Q12,16 16,6Z" fill="#44cc66" opacity="0.5"/>
  <!-- Leaf vein - center -->
  <path d="M16,6 L16,26" fill="none" stroke="#228844" stroke-width="0.8" opacity="0.6"/>
  <!-- Side veins -->
  <path d="M16,10 L10,14" fill="none" stroke="#228844" stroke-width="0.5" opacity="0.5"/>
  <path d="M16,10 L22,14" fill="none" stroke="#228844" stroke-width="0.5" opacity="0.5"/>
  <path d="M16,15 L9,18" fill="none" stroke="#228844" stroke-width="0.5" opacity="0.5"/>
  <path d="M16,15 L23,18" fill="none" stroke="#228844" stroke-width="0.5" opacity="0.5"/>
  <path d="M16,20 L10,22" fill="none" stroke="#228844" stroke-width="0.5" opacity="0.4"/>
  <path d="M16,20 L22,22" fill="none" stroke="#228844" stroke-width="0.5" opacity="0.4"/>
  <!-- Healing sparkles -->
  <g fill="#aaffcc" opacity="0.8">
    <path d="M8,6 L8.5,4 L9,6 L10.5,5.5 L9,6.5 L8.5,8 L8,6.5 L6.5,5.5Z"/>
  </g>
  <g fill="#aaffcc" opacity="0.7">
    <path d="M24,8 L24.5,6 L25,8 L26.5,7.5 L25,8.5 L24.5,10 L24,8.5 L22.5,7.5Z"/>
  </g>
  <g fill="#88ffbb" opacity="0.6">
    <path d="M6,22 L6.3,20.5 L6.6,22 L8,21.5 L6.6,22.3 L6.3,23.5 L6,22.3 L4.5,21.5Z"/>
  </g>
  <g fill="#88ffbb" opacity="0.6">
    <path d="M26,20 L26.3,18.5 L26.6,20 L28,19.5 L26.6,20.3 L26.3,21.5 L26,20.3 L24.5,19.5Z"/>
  </g>
  <!-- Leaf outline -->
  <path d="M16,4 Q6,10 6,18 Q6,24 16,28 Q26,24 26,18 Q26,10 16,4Z" fill="none" stroke="#228844" stroke-width="0.6"/>
</svg>