<svg xmlns="http://www.w3.org/2000/svg" viewBox="0 0 32 32" width="32" height="32">
  <!-- Healing wind swirl -->
  <!-- Main wind spiral -->
  <path d="M6,16 Q8,8 16,8 Q24,8 24,14 Q24,18 20,18 Q16,18 17,14 Q18,11 22,12" fill="none" stroke="#66ddaa" stroke-width="2" stroke-linecap="round" opacity="0.8"/>
  <!-- Second spiral layer -->
  <path d="M8,22 Q10,16 16,15 Q22,14 23,18 Q24,22 18,21 Q14,20 16,17" fill="none" stroke="#44bb88" stroke-width="1.5" stroke-linecap="round" opacity="0.6"/>
  <!-- Healing sparkles -->
  <circle cx="8" cy="12" r="1" fill="#88ffcc" opacity="0.7"/>
  <circle cx="22" cy="10" r="0.8" fill="#88ffcc" opacity="0.6"/>
  <circle cx="12" cy="22" r="0.7" fill="#88ffcc" opacity="0.5"/>
  <circle cx="24" cy="20" r="0.9" fill="#88ffcc" opacity="0.6"/>
  <!-- Cross/plus heal symbols -->
  <g transform="translate(6,24)" opacity="0.6">
    <rect x="-0.5" y="-2" width="1" height="4" rx="0.3" fill="#66ffbb"/>
    <rect x="-2" y="-0.5" width="4" height="1" rx="0.3" fill="#66ffbb"/>
  </g>
  <g transform="translate(26,8)" opacity="0.5">
    <rect x="-0.4" y="-1.5" width="0.8" height="3" rx="0.2" fill="#66ffbb"/>
    <rect x="-1.5" y="-0.4" width="3" height="0.8" rx="0.2" fill="#66ffbb"/>
  </g>
  <!-- Wind streaks -->
  <path d="M3,18 Q5,17 8,18" fill="none" stroke="#aaffdd" stroke-width="0.6" opacity="0.4" stroke-linecap="round"/>
  <path d="M24,24 Q27,23 30,24" fill="none" stroke="#aaffdd" stroke-width="0.6" opacity="0.4" stroke-linecap="round"/>
</svg>